<svg id="visual" viewBox="0 0 900 600" width="900" height="600" xmlns="http://www.w3.org/2000/svg" xmlns:xlink="http://www.w3.org/1999/xlink" version="1.1"><path d="M0 151L82 61L164 121L245 91L327 115L409 121L491 79L573 85L655 109L736 61L818 133L900 145L900 0L818 0L736 0L655 0L573 0L491 0L409 0L327 0L245 0L164 0L82 0L0 0Z" fill="#00cc8e"></path><path d="M0 247L82 169L164 229L245 211L327 157L409 175L491 151L573 157L655 211L736 115L818 199L900 211L900 143L818 131L736 59L655 107L573 83L491 77L409 119L327 113L245 89L164 119L82 59L0 149Z" fill="#00b98a"></path><path d="M0 313L82 235L164 265L245 283L327 247L409 259L491 211L573 205L655 301L736 199L818 277L900 271L900 209L818 197L736 113L655 209L573 155L491 149L409 173L327 155L245 209L164 227L82 167L0 245Z" fill="#00a784"></path><path d="M0 523L82 373L164 481L245 475L327 499L409 373L491 487L573 349L655 445L736 427L818 463L900 433L900 269L818 275L736 197L655 299L573 203L491 209L409 257L327 245L245 281L164 263L82 233L0 311Z" fill="#00957c"></path><path d="M0 601L82 601L164 601L245 601L327 601L409 601L491 601L573 601L655 601L736 601L818 601L900 601L900 431L818 461L736 425L655 443L573 347L491 485L409 371L327 497L245 473L164 479L82 371L0 521Z" fill="#038373"></path></svg>